<svg width="606" height="1629" viewBox="0 0 606 1629" version="1.1" xmlns="http://www.w3.org/2000/svg" xmlns:xlink="http://www.w3.org/1999/xlink">
<title>Group</title>
<desc>Created using Figma</desc>
<g id="Canvas" transform="translate(1459 12377)">
<g id="Group">
<g id="Clef 2 3">
<g id="Vector">
<use xlink:href="#path0_fill" transform="translate(-1459 -12377)" fill="#62C6F4"/>
</g>
</g>
<g id="Clef 2 3">
<g id="Vector">
<use xlink:href="#path1_fill" transform="translate(-1370 -12058)" fill="#62C6F4"/>
</g>
</g>
</g>
</g>
<defs>
<path id="path0_fill" d="M 491.415 158.328C 509.106 210.892 503.658 264.671 483.565 319.261L 515.5 319.261C 531.003 284 545.614 235.326 538.864 180.255C 535.589 153.541 529.864 135.179 519.826 114.018C 484.385 41.8568 418.357 12.3202 334.305 1.34503C 295.289 -3.74953 233.724 7.26987 233.724 7.26987C 233.724 7.26987 75.3251 28.7411 18.0931 216.108C -70.479 505.767 564.873 1112.94 505.181 1413.43C 501.197 1433.59 490.653 1471.57 470.033 1498.56C 452.438 1521.15 429.042 1539.92 401.671 1553.4C 343.092 1580.19 237.649 1590.77 180.592 1562.77C 161.964 1553.45 161.378 1532.74 172.508 1537.45C 192.132 1545.75 247.607 1549.5 263.306 1545.45C 281.405 1540.14 298.08 1531.74 312.337 1520.74C 323.585 1512.23 334.07 1471.21 329.911 1441.34C 327.978 1427.41 316.497 1409.89 299.919 1391.61C 285.44 1377.1 268.374 1364.69 249.365 1354.84C 218.992 1340.2 184.667 1332.79 149.897 1333.37C 102.213 1335.14 48.2615 1357.43 25.4155 1382.75C -12.7783 1425.13 -3.8742 1510.71 25.4155 1543.53C 111.82 1639.74 320.187 1645.11 421.061 1605.56C 509.633 1570.77 550.052 1503.27 562.354 1414.7C 606.23 1098.45 -14.7699 524.402 83.702 218.893C 110.766 134.882 191.547 46.8195 286.035 42.5151C 397.395 37.5018 477.414 116.601 491.415 158.328Z"/>
<path id="path1_fill" d="M 170.538 475.355C 108.21 503.915 77.5725 596.08 77.5725 596.08L 96.0393 596.08C 122.5 540 130.118 520.767 170.538 490.925C 210.958 461.082 310.883 455.619 368.691 481.059C 426.5 506.5 461.555 535.039 480.039 572.482C 498.524 609.925 492.94 658.776 473.393 708.044C 430.309 816.638 313.224 844.29 198.012 824.925C 139.586 815.104 98.77 805.516 60.936 759.925C 18.1945 708.42 13.298 652.652 27.5393 591.826C 41.7805 531 170.538 368.876 245.62 276.425C 320.702 183.973 375.122 116.944 426.539 0L 394.604 0C 322.903 194.861 64.8022 399.395 5.34416 591.826C -6.1374 628.945 -1.33389 727.085 41.7805 775.294C 94.2091 833.985 147.539 837.925 198.012 845.519C 248.484 853.114 343.163 850.053 391.018 824.925C 456.092 790.755 491.729 737.725 502.156 709.044C 520.25 659.272 521.828 621.377 500.524 572.482C 475.117 514.168 399.994 481.178 373.691 470.291C 331.397 453.073 247.687 439.907 170.538 475.355Z"/>
</defs>
</svg>
